<mxfile host="app.diagrams.net" modified="2024-05-30T13:24:49.597Z" agent="Mozilla/5.0 (Windows NT 10.0; Win64; x64) AppleWebKit/537.36 (KHTML, like Gecko) Chrome/124.0.0.0 Safari/537.36" etag="SogKJS1WE_fcO1rqnP8M" version="24.4.10" type="github" pages="2">
  <diagram name="第 1 页" id="EU4W4cCcq-6-x1O9pFuo">
    <mxGraphModel dx="1793" dy="1038" grid="1" gridSize="10" guides="1" tooltips="1" connect="1" arrows="1" fold="1" page="1" pageScale="1" pageWidth="827" pageHeight="1169" math="0" shadow="0">
      <root>
        <mxCell id="0" />
        <mxCell id="1" parent="0" />
        <mxCell id="6mWmFTsLhO2SCgkzVdUd-8" value="Vertical Tree Layout" style="swimlane;startSize=20;horizontal=1;childLayout=treeLayout;horizontalTree=0;sortEdges=1;resizable=0;containerType=tree;fontSize=12;" vertex="1" parent="1">
          <mxGeometry x="100" y="190" width="2236" height="370" as="geometry" />
        </mxCell>
        <mxCell id="6mWmFTsLhO2SCgkzVdUd-9" value="Home" style="whiteSpace=wrap;html=1;" vertex="1" parent="6mWmFTsLhO2SCgkzVdUd-8">
          <mxGeometry x="1137.979" y="40" width="100" height="40" as="geometry" />
        </mxCell>
        <mxCell id="6mWmFTsLhO2SCgkzVdUd-10" value="login" style="whiteSpace=wrap;html=1;" vertex="1" parent="6mWmFTsLhO2SCgkzVdUd-8">
          <mxGeometry x="160" y="130" width="100" height="40" as="geometry" />
        </mxCell>
        <mxCell id="6mWmFTsLhO2SCgkzVdUd-11" value="" style="edgeStyle=elbowEdgeStyle;elbow=vertical;html=1;rounded=1;curved=0;sourcePerimeterSpacing=0;targetPerimeterSpacing=0;startSize=6;endSize=6;fontSize=12;" edge="1" parent="6mWmFTsLhO2SCgkzVdUd-8" source="6mWmFTsLhO2SCgkzVdUd-9" target="6mWmFTsLhO2SCgkzVdUd-10">
          <mxGeometry relative="1" as="geometry" />
        </mxCell>
        <mxCell id="6mWmFTsLhO2SCgkzVdUd-13" value="" style="edgeStyle=elbowEdgeStyle;elbow=vertical;html=1;rounded=1;curved=0;sourcePerimeterSpacing=0;targetPerimeterSpacing=0;startSize=6;endSize=6;fontSize=12;" edge="1" parent="6mWmFTsLhO2SCgkzVdUd-8" source="6mWmFTsLhO2SCgkzVdUd-9" target="6mWmFTsLhO2SCgkzVdUd-18">
          <mxGeometry relative="1" as="geometry" />
        </mxCell>
        <mxCell id="6mWmFTsLhO2SCgkzVdUd-18" value="register" style="whiteSpace=wrap;html=1;" vertex="1" parent="6mWmFTsLhO2SCgkzVdUd-8">
          <mxGeometry x="704.1" y="130" width="100" height="40" as="geometry" />
        </mxCell>
        <mxCell id="6mWmFTsLhO2SCgkzVdUd-19" value="" style="edgeStyle=elbowEdgeStyle;elbow=vertical;html=1;rounded=1;curved=0;sourcePerimeterSpacing=0;targetPerimeterSpacing=0;startSize=6;endSize=6;fontSize=12;" edge="1" target="6mWmFTsLhO2SCgkzVdUd-20" source="6mWmFTsLhO2SCgkzVdUd-9" parent="6mWmFTsLhO2SCgkzVdUd-8">
          <mxGeometry relative="1" as="geometry">
            <mxPoint x="-10616.846499999998" y="270" as="sourcePoint" />
          </mxGeometry>
        </mxCell>
        <mxCell id="6mWmFTsLhO2SCgkzVdUd-20" value="footer" style="whiteSpace=wrap;html=1;" vertex="1" parent="6mWmFTsLhO2SCgkzVdUd-8">
          <mxGeometry x="1512.5100000000002" y="130" width="100" height="40" as="geometry" />
        </mxCell>
        <mxCell id="6mWmFTsLhO2SCgkzVdUd-93" value="" style="edgeStyle=elbowEdgeStyle;elbow=vertical;html=1;rounded=1;curved=0;sourcePerimeterSpacing=0;targetPerimeterSpacing=0;startSize=6;endSize=6;fontSize=12;" edge="1" target="6mWmFTsLhO2SCgkzVdUd-94" source="6mWmFTsLhO2SCgkzVdUd-9" parent="6mWmFTsLhO2SCgkzVdUd-8">
          <mxGeometry relative="1" as="geometry">
            <mxPoint x="-10476.846499999998" y="270" as="sourcePoint" />
          </mxGeometry>
        </mxCell>
        <mxCell id="6mWmFTsLhO2SCgkzVdUd-94" value="Search box" style="whiteSpace=wrap;html=1;" vertex="1" parent="6mWmFTsLhO2SCgkzVdUd-8">
          <mxGeometry x="1975.958" y="130" width="100" height="40" as="geometry" />
        </mxCell>
        <mxCell id="6mWmFTsLhO2SCgkzVdUd-99" value="" style="edgeStyle=elbowEdgeStyle;elbow=vertical;html=1;rounded=1;curved=0;sourcePerimeterSpacing=0;targetPerimeterSpacing=0;startSize=6;endSize=6;fontSize=12;" edge="1" target="6mWmFTsLhO2SCgkzVdUd-100" source="6mWmFTsLhO2SCgkzVdUd-9" parent="6mWmFTsLhO2SCgkzVdUd-8">
          <mxGeometry relative="1" as="geometry">
            <mxPoint x="-10266.8465" y="270" as="sourcePoint" />
          </mxGeometry>
        </mxCell>
        <mxCell id="6mWmFTsLhO2SCgkzVdUd-100" value="F&amp;amp;Q" style="whiteSpace=wrap;html=1;" vertex="1" parent="6mWmFTsLhO2SCgkzVdUd-8">
          <mxGeometry x="2115.958" y="130" width="100" height="40" as="geometry" />
        </mxCell>
        <mxCell id="6mWmFTsLhO2SCgkzVdUd-101" value="" style="edgeStyle=elbowEdgeStyle;elbow=vertical;html=1;rounded=1;curved=0;sourcePerimeterSpacing=0;targetPerimeterSpacing=0;startSize=6;endSize=6;fontSize=12;" edge="1" target="6mWmFTsLhO2SCgkzVdUd-102" source="6mWmFTsLhO2SCgkzVdUd-18" parent="6mWmFTsLhO2SCgkzVdUd-8">
          <mxGeometry relative="1" as="geometry">
            <mxPoint x="-9986.8465" y="270" as="sourcePoint" />
          </mxGeometry>
        </mxCell>
        <mxCell id="6mWmFTsLhO2SCgkzVdUd-102" value="username text box" style="whiteSpace=wrap;html=1;" vertex="1" parent="6mWmFTsLhO2SCgkzVdUd-8">
          <mxGeometry x="440" y="220" width="127.05" height="40" as="geometry" />
        </mxCell>
        <mxCell id="6mWmFTsLhO2SCgkzVdUd-113" value="" style="edgeStyle=elbowEdgeStyle;elbow=vertical;html=1;rounded=1;curved=0;sourcePerimeterSpacing=0;targetPerimeterSpacing=0;startSize=6;endSize=6;fontSize=12;" edge="1" target="6mWmFTsLhO2SCgkzVdUd-114" source="6mWmFTsLhO2SCgkzVdUd-18" parent="6mWmFTsLhO2SCgkzVdUd-8">
          <mxGeometry relative="1" as="geometry">
            <mxPoint x="-10126.6665" y="360" as="sourcePoint" />
          </mxGeometry>
        </mxCell>
        <mxCell id="6mWmFTsLhO2SCgkzVdUd-114" value="password text box" style="whiteSpace=wrap;html=1;" vertex="1" parent="6mWmFTsLhO2SCgkzVdUd-8">
          <mxGeometry x="607.05" y="220" width="127.05" height="40" as="geometry" />
        </mxCell>
        <mxCell id="6mWmFTsLhO2SCgkzVdUd-115" value="" style="edgeStyle=elbowEdgeStyle;elbow=vertical;html=1;rounded=1;curved=0;sourcePerimeterSpacing=0;targetPerimeterSpacing=0;startSize=6;endSize=6;fontSize=12;" edge="1" target="6mWmFTsLhO2SCgkzVdUd-116" source="6mWmFTsLhO2SCgkzVdUd-18" parent="6mWmFTsLhO2SCgkzVdUd-8">
          <mxGeometry relative="1" as="geometry">
            <mxPoint x="-9766.8465" y="360" as="sourcePoint" />
          </mxGeometry>
        </mxCell>
        <mxCell id="6mWmFTsLhO2SCgkzVdUd-116" value="email text box" style="whiteSpace=wrap;html=1;" vertex="1" parent="6mWmFTsLhO2SCgkzVdUd-8">
          <mxGeometry x="774.0999999999999" y="220" width="127.05" height="40" as="geometry" />
        </mxCell>
        <mxCell id="6mWmFTsLhO2SCgkzVdUd-117" value="" style="edgeStyle=elbowEdgeStyle;elbow=vertical;html=1;rounded=1;curved=0;sourcePerimeterSpacing=0;targetPerimeterSpacing=0;startSize=6;endSize=6;fontSize=12;" edge="1" target="6mWmFTsLhO2SCgkzVdUd-118" source="6mWmFTsLhO2SCgkzVdUd-18" parent="6mWmFTsLhO2SCgkzVdUd-8">
          <mxGeometry relative="1" as="geometry">
            <mxPoint x="-9340.1345" y="360" as="sourcePoint" />
          </mxGeometry>
        </mxCell>
        <mxCell id="6mWmFTsLhO2SCgkzVdUd-118" value="register button" style="whiteSpace=wrap;html=1;" vertex="1" parent="6mWmFTsLhO2SCgkzVdUd-8">
          <mxGeometry x="941.1499999999999" y="220" width="127.05" height="40" as="geometry" />
        </mxCell>
        <mxCell id="6mWmFTsLhO2SCgkzVdUd-119" value="" style="edgeStyle=elbowEdgeStyle;elbow=vertical;html=1;rounded=1;curved=0;sourcePerimeterSpacing=0;targetPerimeterSpacing=0;startSize=6;endSize=6;fontSize=12;" edge="1" target="6mWmFTsLhO2SCgkzVdUd-120" source="6mWmFTsLhO2SCgkzVdUd-20" parent="6mWmFTsLhO2SCgkzVdUd-8">
          <mxGeometry relative="1" as="geometry">
            <mxPoint x="-8707.5305" y="270" as="sourcePoint" />
          </mxGeometry>
        </mxCell>
        <mxCell id="6mWmFTsLhO2SCgkzVdUd-120" value="Renting guide" style="whiteSpace=wrap;html=1;" vertex="1" parent="6mWmFTsLhO2SCgkzVdUd-8">
          <mxGeometry x="1108.2000000000003" y="220" width="100" height="40" as="geometry" />
        </mxCell>
        <mxCell id="6mWmFTsLhO2SCgkzVdUd-121" value="" style="edgeStyle=elbowEdgeStyle;elbow=vertical;html=1;rounded=1;curved=0;sourcePerimeterSpacing=0;targetPerimeterSpacing=0;startSize=6;endSize=6;fontSize=12;" edge="1" target="6mWmFTsLhO2SCgkzVdUd-122" source="6mWmFTsLhO2SCgkzVdUd-20" parent="6mWmFTsLhO2SCgkzVdUd-8">
          <mxGeometry relative="1" as="geometry">
            <mxPoint x="-7952.250500000001" y="360" as="sourcePoint" />
          </mxGeometry>
        </mxCell>
        <mxCell id="6mWmFTsLhO2SCgkzVdUd-122" value="Rent house Contract Download" style="whiteSpace=wrap;html=1;" vertex="1" parent="6mWmFTsLhO2SCgkzVdUd-8">
          <mxGeometry x="1248.2000000000003" y="220" width="124.62" height="40" as="geometry" />
        </mxCell>
        <mxCell id="6mWmFTsLhO2SCgkzVdUd-123" value="" style="edgeStyle=elbowEdgeStyle;elbow=vertical;html=1;rounded=1;curved=0;sourcePerimeterSpacing=0;targetPerimeterSpacing=0;startSize=6;endSize=6;fontSize=12;" edge="1" target="6mWmFTsLhO2SCgkzVdUd-124" source="6mWmFTsLhO2SCgkzVdUd-20" parent="6mWmFTsLhO2SCgkzVdUd-8">
          <mxGeometry relative="1" as="geometry">
            <mxPoint x="-7364.5605000000005" y="360" as="sourcePoint" />
          </mxGeometry>
        </mxCell>
        <mxCell id="6mWmFTsLhO2SCgkzVdUd-124" value="Repport &amp;amp; Conrtact" style="whiteSpace=wrap;html=1;" vertex="1" parent="6mWmFTsLhO2SCgkzVdUd-8">
          <mxGeometry x="1524.8200000000002" y="220" width="100" height="40" as="geometry" />
        </mxCell>
        <mxCell id="6mWmFTsLhO2SCgkzVdUd-125" value="" style="edgeStyle=elbowEdgeStyle;elbow=vertical;html=1;rounded=1;curved=0;sourcePerimeterSpacing=0;targetPerimeterSpacing=0;startSize=6;endSize=6;fontSize=12;" edge="1" target="6mWmFTsLhO2SCgkzVdUd-126" source="6mWmFTsLhO2SCgkzVdUd-20" parent="6mWmFTsLhO2SCgkzVdUd-8">
          <mxGeometry relative="1" as="geometry">
            <mxPoint x="-6713.870500000001" y="360" as="sourcePoint" />
          </mxGeometry>
        </mxCell>
        <mxCell id="6mWmFTsLhO2SCgkzVdUd-126" value="gov.rent.com" style="whiteSpace=wrap;html=1;" vertex="1" parent="6mWmFTsLhO2SCgkzVdUd-8">
          <mxGeometry x="1776.8200000000002" y="220" width="100" height="40" as="geometry" />
        </mxCell>
        <mxCell id="6mWmFTsLhO2SCgkzVdUd-127" value="" style="edgeStyle=elbowEdgeStyle;elbow=vertical;html=1;rounded=1;curved=0;sourcePerimeterSpacing=0;targetPerimeterSpacing=0;startSize=6;endSize=6;fontSize=12;" edge="1" target="6mWmFTsLhO2SCgkzVdUd-128" source="6mWmFTsLhO2SCgkzVdUd-20" parent="6mWmFTsLhO2SCgkzVdUd-8">
          <mxGeometry relative="1" as="geometry">
            <mxPoint x="-6000.1805" y="360" as="sourcePoint" />
          </mxGeometry>
        </mxCell>
        <mxCell id="6mWmFTsLhO2SCgkzVdUd-128" value="moving.com" style="whiteSpace=wrap;html=1;" vertex="1" parent="6mWmFTsLhO2SCgkzVdUd-8">
          <mxGeometry x="1916.8200000000002" y="220" width="100" height="40" as="geometry" />
        </mxCell>
        <mxCell id="6mWmFTsLhO2SCgkzVdUd-129" value="" style="edgeStyle=elbowEdgeStyle;elbow=vertical;html=1;rounded=1;curved=0;sourcePerimeterSpacing=0;targetPerimeterSpacing=0;startSize=6;endSize=6;fontSize=12;" edge="1" target="6mWmFTsLhO2SCgkzVdUd-130" source="6mWmFTsLhO2SCgkzVdUd-124" parent="6mWmFTsLhO2SCgkzVdUd-8">
          <mxGeometry relative="1" as="geometry">
            <mxPoint x="-5223.490500000001" y="360" as="sourcePoint" />
          </mxGeometry>
        </mxCell>
        <mxCell id="6mWmFTsLhO2SCgkzVdUd-130" value="emil" style="whiteSpace=wrap;html=1;" vertex="1" parent="6mWmFTsLhO2SCgkzVdUd-8">
          <mxGeometry x="1384.8200000000002" y="310" width="100" height="40" as="geometry" />
        </mxCell>
        <mxCell id="6mWmFTsLhO2SCgkzVdUd-131" value="" style="edgeStyle=elbowEdgeStyle;elbow=vertical;html=1;rounded=1;curved=0;sourcePerimeterSpacing=0;targetPerimeterSpacing=0;startSize=6;endSize=6;fontSize=12;" edge="1" target="6mWmFTsLhO2SCgkzVdUd-132" source="6mWmFTsLhO2SCgkzVdUd-124" parent="6mWmFTsLhO2SCgkzVdUd-8">
          <mxGeometry relative="1" as="geometry">
            <mxPoint x="-5223.490500000001" y="450" as="sourcePoint" />
          </mxGeometry>
        </mxCell>
        <mxCell id="6mWmFTsLhO2SCgkzVdUd-132" value="facebook" style="whiteSpace=wrap;html=1;" vertex="1" parent="6mWmFTsLhO2SCgkzVdUd-8">
          <mxGeometry x="1524.8200000000002" y="310" width="100" height="40" as="geometry" />
        </mxCell>
        <mxCell id="6mWmFTsLhO2SCgkzVdUd-133" value="" style="edgeStyle=elbowEdgeStyle;elbow=vertical;html=1;rounded=1;curved=0;sourcePerimeterSpacing=0;targetPerimeterSpacing=0;startSize=6;endSize=6;fontSize=12;" edge="1" target="6mWmFTsLhO2SCgkzVdUd-134" source="6mWmFTsLhO2SCgkzVdUd-124" parent="6mWmFTsLhO2SCgkzVdUd-8">
          <mxGeometry relative="1" as="geometry">
            <mxPoint x="-4397.8005" y="450" as="sourcePoint" />
          </mxGeometry>
        </mxCell>
        <mxCell id="6mWmFTsLhO2SCgkzVdUd-134" value="X (Twitter)" style="whiteSpace=wrap;html=1;" vertex="1" parent="6mWmFTsLhO2SCgkzVdUd-8">
          <mxGeometry x="1664.8200000000002" y="310" width="100" height="40" as="geometry" />
        </mxCell>
        <mxCell id="6mWmFTsLhO2SCgkzVdUd-135" value="" style="edgeStyle=elbowEdgeStyle;elbow=vertical;html=1;rounded=1;curved=0;sourcePerimeterSpacing=0;targetPerimeterSpacing=0;startSize=6;endSize=6;fontSize=12;" edge="1" target="6mWmFTsLhO2SCgkzVdUd-136" source="6mWmFTsLhO2SCgkzVdUd-10" parent="6mWmFTsLhO2SCgkzVdUd-8">
          <mxGeometry relative="1" as="geometry">
            <mxPoint x="-2896.5060000000003" y="270" as="sourcePoint" />
          </mxGeometry>
        </mxCell>
        <mxCell id="6mWmFTsLhO2SCgkzVdUd-136" value="username text box" style="whiteSpace=wrap;html=1;" vertex="1" parent="6mWmFTsLhO2SCgkzVdUd-8">
          <mxGeometry x="20" y="220" width="100" height="40" as="geometry" />
        </mxCell>
        <mxCell id="6mWmFTsLhO2SCgkzVdUd-137" value="" style="edgeStyle=elbowEdgeStyle;elbow=vertical;html=1;rounded=1;curved=0;sourcePerimeterSpacing=0;targetPerimeterSpacing=0;startSize=6;endSize=6;fontSize=12;" edge="1" target="6mWmFTsLhO2SCgkzVdUd-138" source="6mWmFTsLhO2SCgkzVdUd-10" parent="6mWmFTsLhO2SCgkzVdUd-8">
          <mxGeometry relative="1" as="geometry">
            <mxPoint x="-2896.937" y="360" as="sourcePoint" />
          </mxGeometry>
        </mxCell>
        <mxCell id="6mWmFTsLhO2SCgkzVdUd-138" value="password text box" style="whiteSpace=wrap;html=1;" vertex="1" parent="6mWmFTsLhO2SCgkzVdUd-8">
          <mxGeometry x="160" y="220" width="100" height="40" as="geometry" />
        </mxCell>
        <mxCell id="6mWmFTsLhO2SCgkzVdUd-139" value="" style="edgeStyle=elbowEdgeStyle;elbow=vertical;html=1;rounded=1;curved=0;sourcePerimeterSpacing=0;targetPerimeterSpacing=0;startSize=6;endSize=6;fontSize=12;" edge="1" target="6mWmFTsLhO2SCgkzVdUd-140" source="6mWmFTsLhO2SCgkzVdUd-10" parent="6mWmFTsLhO2SCgkzVdUd-8">
          <mxGeometry relative="1" as="geometry">
            <mxPoint x="-1918.958" y="360" as="sourcePoint" />
          </mxGeometry>
        </mxCell>
        <mxCell id="6mWmFTsLhO2SCgkzVdUd-140" value="Login button" style="whiteSpace=wrap;html=1;" vertex="1" parent="6mWmFTsLhO2SCgkzVdUd-8">
          <mxGeometry x="300" y="220" width="100" height="40" as="geometry" />
        </mxCell>
        <mxCell id="6mWmFTsLhO2SCgkzVdUd-143" value="" style="edgeStyle=elbowEdgeStyle;elbow=vertical;html=1;rounded=1;curved=0;sourcePerimeterSpacing=0;targetPerimeterSpacing=0;startSize=6;endSize=6;fontSize=12;" edge="1" target="6mWmFTsLhO2SCgkzVdUd-144" source="6mWmFTsLhO2SCgkzVdUd-100" parent="6mWmFTsLhO2SCgkzVdUd-8">
          <mxGeometry relative="1" as="geometry">
            <mxPoint x="1120.021" y="360" as="sourcePoint" />
          </mxGeometry>
        </mxCell>
        <mxCell id="6mWmFTsLhO2SCgkzVdUd-144" value="Direct to doc page" style="whiteSpace=wrap;html=1;" vertex="1" parent="6mWmFTsLhO2SCgkzVdUd-8">
          <mxGeometry x="2115.958" y="220" width="100" height="40" as="geometry" />
        </mxCell>
      </root>
    </mxGraphModel>
  </diagram>
  <diagram id="PKQzQg2L_E5qWIGIoYwI" name="第 2 页">
    <mxGraphModel dx="1434" dy="830" grid="0" gridSize="10" guides="1" tooltips="1" connect="1" arrows="1" fold="1" page="0" pageScale="1" pageWidth="827" pageHeight="1169" math="0" shadow="0">
      <root>
        <mxCell id="0" />
        <mxCell id="1" parent="0" />
      </root>
    </mxGraphModel>
  </diagram>
</mxfile>
